<?xml version="1.0" encoding="utf-8" standalone="no"?>
<!DOCTYPE svg PUBLIC "-//W3C//DTD SVG 1.1//EN"
  "http://www.w3.org/Graphics/SVG/1.1/DTD/svg11.dtd">
<svg xmlns:xlink="http://www.w3.org/1999/xlink" width="993.6pt" height="684pt" viewBox="0 0 993.6 684" xmlns="http://www.w3.org/2000/svg" version="1.1">
 <metadata>
  <rdf:RDF xmlns:dc="http://purl.org/dc/elements/1.1/" xmlns:cc="http://creativecommons.org/ns#" xmlns:rdf="http://www.w3.org/1999/02/22-rdf-syntax-ns#">
   <cc:Work>
    <dc:type rdf:resource="http://purl.org/dc/dcmitype/StillImage"/>
    <dc:date>2026-09-16T09:06:41.759004</dc:date>
    <dc:format>image/svg+xml</dc:format>
    <dc:creator>
     <cc:Agent>
      <dc:title>Matplotlib v3.10.8, https://matplotlib.org/</dc:title>
     </cc:Agent>
    </dc:creator>
   </cc:Work>
  </rdf:RDF>
 </metadata>
 <defs>
  <style type="text/css">*{stroke-linejoin: round; stroke-linecap: butt}</style>
 </defs>
 <g id="figure_1">
  <g id="patch_1">
   <path d="M 0 684 
L 993.6 684 
L 993.6 0 
L 0 0 
z
" style="fill: #f4f1e8"/>
  </g>
  <g id="axes_1">
   <g id="patch_2">
    <path d="M 180.257538 507.212308 
L 449.122154 507.212308 
L 449.122154 199.938462 
L 180.257538 199.938462 
z
" clip-path="url(#pc08dca8dcf)" style="fill: #c9c3b3; stroke: #24382f; stroke-width: 1.2; stroke-linejoin: miter"/>
   </g>
   <g id="patch_3">
    <path d="M 191.780308 495.689538 
L 437.599385 495.689538 
L 437.599385 211.461231 
L 191.780308 211.461231 
z
" clip-path="url(#pc08dca8dcf)" style="fill: #f4f1e8; stroke: #24382f; stroke-width: 0.8; stroke-linejoin: miter"/>
   </g>
   <g id="patch_4">
    <path d="M 602.759077 411.189231 
L 794.805231 411.189231 
L 794.805231 199.938462 
L 602.759077 199.938462 
z
" clip-path="url(#pc08dca8dcf)" style="fill: #c9c3b3; stroke: #24382f; stroke-width: 1.2; stroke-linejoin: miter"/>
   </g>
   <g id="patch_5">
    <path d="M 614.281846 399.666462 
L 783.282462 399.666462 
L 783.282462 211.461231 
L 614.281846 211.461231 
z
" clip-path="url(#pc08dca8dcf)" style="fill: #f4f1e8; stroke: #24382f; stroke-width: 0.8; stroke-linejoin: miter"/>
   </g>
   <g id="patch_6">
    <path d="M 191.780308 384.302769 
L 276.280615 384.302769 
L 276.280615 211.461231 
L 191.780308 211.461231 
z
" clip-path="url(#pc08dca8dcf)" style="fill: #e2dccd; stroke: #24382f; stroke-width: 0.7; stroke-linejoin: miter"/>
   </g>
   <g id="patch_7">
    <path d="M 257.076 471.875815 
C 257.8909 471.875815 258.672533 471.552052 259.248754 470.975831 
C 259.824975 470.39961 260.148738 469.617977 260.148738 468.803077 
C 260.148738 467.988177 259.824975 467.206544 259.248754 466.630323 
C 258.672533 466.054102 257.8909 465.730338 257.076 465.730338 
C 256.2611 465.730338 255.479467 466.054102 254.903246 466.630323 
C 254.327025 467.206544 254.003262 467.988177 254.003262 468.803077 
C 254.003262 469.617977 254.327025 470.39961 254.903246 470.975831 
C 255.479467 471.552052 256.2611 471.875815 257.076 471.875815 
z
" clip-path="url(#pc08dca8dcf)" style="fill: #da9855; stroke: #24382f; stroke-width: 0.5; stroke-linejoin: miter"/>
   </g>
   <g id="patch_8">
    <path d="M 372.303692 471.875815 
C 373.118592 471.875815 373.900225 471.552052 374.476447 470.975831 
C 375.052668 470.39961 375.376431 469.617977 375.376431 468.803077 
C 375.376431 467.988177 375.052668 467.206544 374.476447 466.630323 
C 373.900225 466.054102 373.118592 465.730338 372.303692 465.730338 
C 371.488793 465.730338 370.707159 466.054102 370.130938 466.630323 
C 369.554717 467.206544 369.230954 467.988177 369.230954 468.803077 
C 369.230954 469.617977 369.554717 470.39961 370.130938 470.975831 
C 370.707159 471.552052 371.488793 471.875815 372.303692 471.875815 
z
" clip-path="url(#pc08dca8dcf)" style="fill: #da9855; stroke: #24382f; stroke-width: 0.5; stroke-linejoin: miter"/>
   </g>
   <g id="patch_9">
    <path d="M 257.076 364.329969 
C 257.8909 364.329969 258.672533 364.006206 259.248754 363.429985 
C 259.824975 362.853764 260.148738 362.072131 260.148738 361.257231 
C 260.148738 360.442331 259.824975 359.660698 259.248754 359.084477 
C 258.672533 358.508255 257.8909 358.184492 257.076 358.184492 
C 256.2611 358.184492 255.479467 358.508255 254.903246 359.084477 
C 254.327025 359.660698 254.003262 360.442331 254.003262 361.257231 
C 254.003262 362.072131 254.327025 362.853764 254.903246 363.429985 
C 255.479467 364.006206 256.2611 364.329969 257.076 364.329969 
z
" clip-path="url(#pc08dca8dcf)" style="fill: #da9855; stroke: #24382f; stroke-width: 0.5; stroke-linejoin: miter"/>
   </g>
   <g id="patch_10">
    <path d="M 372.303692 333.602585 
C 373.118592 333.602585 373.900225 333.278822 374.476447 332.7026 
C 375.052668 332.126379 375.376431 331.344746 375.376431 330.529846 
C 375.376431 329.714946 375.052668 328.933313 374.476447 328.357092 
C 373.900225 327.780871 373.118592 327.457108 372.303692 327.457108 
C 371.488793 327.457108 370.707159 327.780871 370.130938 328.357092 
C 369.554717 328.933313 369.230954 329.714946 369.230954 330.529846 
C 369.230954 331.344746 369.554717 332.126379 370.130938 332.7026 
C 370.707159 333.278822 371.488793 333.602585 372.303692 333.602585 
z
" clip-path="url(#pc08dca8dcf)" style="fill: #da9855; stroke: #24382f; stroke-width: 0.5; stroke-linejoin: miter"/>
   </g>
   <g id="patch_11">
    <path d="M 652.691077 356.648123 
C 653.505977 356.648123 654.28761 356.32436 654.863831 355.748139 
C 655.440052 355.171918 655.763815 354.390284 655.763815 353.575385 
C 655.763815 352.760485 655.440052 351.978852 654.863831 351.40263 
C 654.28761 350.826409 653.505977 350.502646 652.691077 350.502646 
C 651.876177 350.502646 651.094544 350.826409 650.518323 351.40263 
C 649.942102 351.978852 649.618338 352.760485 649.618338 353.575385 
C 649.618338 354.390284 649.942102 355.171918 650.518323 355.748139 
C 651.094544 356.32436 651.876177 356.648123 652.691077 356.648123 
z
" clip-path="url(#pc08dca8dcf)" style="fill: #da9855; stroke: #24382f; stroke-width: 0.5; stroke-linejoin: miter"/>
   </g>
   <g id="patch_12">
    <path d="M 748.714154 356.648123 
C 749.529054 356.648123 750.310687 356.32436 750.886908 355.748139 
C 751.463129 355.171918 751.786892 354.390284 751.786892 353.575385 
C 751.786892 352.760485 751.463129 351.978852 750.886908 351.40263 
C 750.310687 350.826409 749.529054 350.502646 748.714154 350.502646 
C 747.899254 350.502646 747.117621 350.826409 746.5414 351.40263 
C 745.965178 351.978852 745.641415 352.760485 745.641415 353.575385 
C 745.641415 354.390284 745.965178 355.171918 746.5414 355.748139 
C 747.117621 356.32436 747.899254 356.648123 748.714154 356.648123 
z
" clip-path="url(#pc08dca8dcf)" style="fill: #da9855; stroke: #24382f; stroke-width: 0.5; stroke-linejoin: miter"/>
   </g>
   <g id="patch_13">
    <path d="M 652.691077 260.625046 
C 653.505977 260.625046 654.28761 260.301283 654.863831 259.725062 
C 655.440052 259.148841 655.763815 258.367207 655.763815 257.552308 
C 655.763815 256.737408 655.440052 255.955775 654.863831 255.379553 
C 654.28761 254.803332 653.505977 254.479569 652.691077 254.479569 
C 651.876177 254.479569 651.094544 254.803332 650.518323 255.379553 
C 649.942102 255.955775 649.618338 256.737408 649.618338 257.552308 
C 649.618338 258.367207 649.942102 259.148841 650.518323 259.725062 
C 651.094544 260.301283 651.876177 260.625046 652.691077 260.625046 
z
" clip-path="url(#pc08dca8dcf)" style="fill: #da9855; stroke: #24382f; stroke-width: 0.5; stroke-linejoin: miter"/>
   </g>
   <g id="patch_14">
    <path d="M 748.714154 260.625046 
C 749.529054 260.625046 750.310687 260.301283 750.886908 259.725062 
C 751.463129 259.148841 751.786892 258.367207 751.786892 257.552308 
C 751.786892 256.737408 751.463129 255.955775 750.886908 255.379553 
C 750.310687 254.803332 749.529054 254.479569 748.714154 254.479569 
C 747.899254 254.479569 747.117621 254.803332 746.5414 255.379553 
C 745.965178 255.955775 745.641415 256.737408 745.641415 257.552308 
C 745.641415 258.367207 745.965178 259.148841 746.5414 259.725062 
C 747.117621 260.301283 747.899254 260.625046 748.714154 260.625046 
z
" clip-path="url(#pc08dca8dcf)" style="fill: #da9855; stroke: #24382f; stroke-width: 0.5; stroke-linejoin: miter"/>
   </g>
   <g id="line2d_1">
    <path d="M 201.382615 507.212308 
L 433.758462 507.212308 
" clip-path="url(#pc08dca8dcf)" style="fill: none; stroke: #f4f1e8; stroke-width: 5; stroke-linecap: square"/>
   </g>
   <g id="line2d_2">
    <path d="M 201.382615 507.212308 
L 433.758462 507.212308 
" clip-path="url(#pc08dca8dcf)" style="fill: none; stroke: #347f90; stroke-width: 2; stroke-linecap: square"/>
   </g>
   <g id="line2d_3">
    <path d="M 180.257538 484.166769 
L 180.257538 368.939077 
" clip-path="url(#pc08dca8dcf)" style="fill: none; stroke: #f4f1e8; stroke-width: 5; stroke-linecap: square"/>
   </g>
   <g id="line2d_4">
    <path d="M 180.257538 484.166769 
L 180.257538 368.939077 
" clip-path="url(#pc08dca8dcf)" style="fill: none; stroke: #347f90; stroke-width: 2; stroke-linecap: square"/>
   </g>
   <g id="line2d_5">
    <path d="M 618.122769 411.189231 
L 779.441538 411.189231 
" clip-path="url(#pc08dca8dcf)" style="fill: none; stroke: #f4f1e8; stroke-width: 5; stroke-linecap: square"/>
   </g>
   <g id="line2d_6">
    <path d="M 618.122769 411.189231 
L 779.441538 411.189231 
" clip-path="url(#pc08dca8dcf)" style="fill: none; stroke: #347f90; stroke-width: 2; stroke-linecap: square"/>
   </g>
   <g id="line2d_7">
    <path d="M 449.122154 484.166769 
L 449.122154 361.257231 
" clip-path="url(#pc08dca8dcf)" style="fill: none; stroke: #f4f1e8; stroke-width: 5; stroke-linecap: square"/>
   </g>
   <g id="line2d_8">
    <path d="M 449.122154 484.166769 
L 449.122154 361.257231 
" clip-path="url(#pc08dca8dcf)" style="fill: none; stroke: #347f90; stroke-width: 2; stroke-linecap: square"/>
   </g>
   <g id="line2d_9">
    <path d="M 449.122154 343.973077 
L 449.122154 303.643385 
" clip-path="url(#pc08dca8dcf)" style="fill: none; stroke: #f4f1e8; stroke-width: 5; stroke-linecap: square"/>
   </g>
   <g id="line2d_10">
    <path d="M 449.122154 343.973077 
L 449.122154 303.643385 
" clip-path="url(#pc08dca8dcf)" style="fill: none; stroke: #be6c34; stroke-width: 2; stroke-linecap: square"/>
   </g>
   <g id="line2d_11">
    <path d="M 602.759077 343.973077 
L 602.759077 303.643385 
" clip-path="url(#pc08dca8dcf)" style="fill: none; stroke: #f4f1e8; stroke-width: 5; stroke-linecap: square"/>
   </g>
   <g id="line2d_12">
    <path d="M 602.759077 343.973077 
L 602.759077 303.643385 
" clip-path="url(#pc08dca8dcf)" style="fill: none; stroke: #be6c34; stroke-width: 2; stroke-linecap: square"/>
   </g>
   <g id="line2d_13">
    <path d="M 191.780308 386.223231 
L 278.201077 386.223231 
" clip-path="url(#pc08dca8dcf)" style="fill: none; stroke: #24382f; stroke-width: 2; stroke-linecap: square"/>
   </g>
   <g id="line2d_14">
    <path d="M 278.201077 384.302769 
L 278.201077 249.870462 
" clip-path="url(#pc08dca8dcf)" style="fill: none; stroke: #24382f; stroke-width: 2; stroke-linecap: square"/>
   </g>
   <g id="line2d_15">
    <path d="M 324.292154 270.995538 
L 437.599385 270.995538 
" clip-path="url(#pc08dca8dcf)" style="fill: none; stroke: #24382f; stroke-width: 2; stroke-linecap: square"/>
   </g>
   <g id="line2d_16">
    <path d="M 324.292154 270.995538 
L 324.292154 211.461231 
" clip-path="url(#pc08dca8dcf)" style="fill: none; stroke: #24382f; stroke-width: 2; stroke-linecap: square"/>
   </g>
   <g id="line2d_17">
    <path d="M 324.292154 253.711385 
L 324.292154 221.063538 
" clip-path="url(#pc08dca8dcf)" style="fill: none; stroke: #f4f1e8; stroke-width: 4; stroke-linecap: square"/>
   </g>
   <g id="line2d_18">
    <path d="M 191.780308 345.893538 
L 230.189538 345.893538 
" clip-path="url(#pc08dca8dcf)" style="fill: none; stroke: #847d6b; stroke-width: 0.5; stroke-linecap: square"/>
   </g>
   <g id="line2d_19">
    <path d="M 191.780308 335.215772 
L 230.189538 335.215772 
" clip-path="url(#pc08dca8dcf)" style="fill: none; stroke: #847d6b; stroke-width: 0.5; stroke-linecap: square"/>
   </g>
   <g id="line2d_20">
    <path d="M 191.780308 324.538006 
L 230.189538 324.538006 
" clip-path="url(#pc08dca8dcf)" style="fill: none; stroke: #847d6b; stroke-width: 0.5; stroke-linecap: square"/>
   </g>
   <g id="line2d_21">
    <path d="M 191.780308 313.86024 
L 230.189538 313.86024 
" clip-path="url(#pc08dca8dcf)" style="fill: none; stroke: #847d6b; stroke-width: 0.5; stroke-linecap: square"/>
   </g>
   <g id="line2d_22">
    <path d="M 191.780308 303.182474 
L 230.189538 303.182474 
" clip-path="url(#pc08dca8dcf)" style="fill: none; stroke: #847d6b; stroke-width: 0.5; stroke-linecap: square"/>
   </g>
   <g id="line2d_23">
    <path d="M 191.780308 292.504708 
L 230.189538 292.504708 
" clip-path="url(#pc08dca8dcf)" style="fill: none; stroke: #847d6b; stroke-width: 0.5; stroke-linecap: square"/>
   </g>
   <g id="line2d_24">
    <path d="M 191.780308 281.826942 
L 230.189538 281.826942 
" clip-path="url(#pc08dca8dcf)" style="fill: none; stroke: #847d6b; stroke-width: 0.5; stroke-linecap: square"/>
   </g>
   <g id="line2d_25">
    <path d="M 191.780308 271.149175 
L 230.189538 271.149175 
" clip-path="url(#pc08dca8dcf)" style="fill: none; stroke: #847d6b; stroke-width: 0.5; stroke-linecap: square"/>
   </g>
   <g id="line2d_26">
    <path d="M 191.780308 260.471409 
L 230.189538 260.471409 
" clip-path="url(#pc08dca8dcf)" style="fill: none; stroke: #847d6b; stroke-width: 0.5; stroke-linecap: square"/>
   </g>
   <g id="line2d_27">
    <path d="M 191.780308 249.793643 
L 230.189538 249.793643 
" clip-path="url(#pc08dca8dcf)" style="fill: none; stroke: #847d6b; stroke-width: 0.5; stroke-linecap: square"/>
   </g>
   <g id="line2d_28">
    <path d="M 237.871385 345.893538 
L 276.280615 345.893538 
" clip-path="url(#pc08dca8dcf)" style="fill: none; stroke: #847d6b; stroke-width: 0.5; stroke-linecap: square"/>
   </g>
   <g id="line2d_29">
    <path d="M 237.871385 335.215772 
L 276.280615 335.215772 
" clip-path="url(#pc08dca8dcf)" style="fill: none; stroke: #847d6b; stroke-width: 0.5; stroke-linecap: square"/>
   </g>
   <g id="line2d_30">
    <path d="M 237.871385 324.538006 
L 276.280615 324.538006 
" clip-path="url(#pc08dca8dcf)" style="fill: none; stroke: #847d6b; stroke-width: 0.5; stroke-linecap: square"/>
   </g>
   <g id="line2d_31">
    <path d="M 237.871385 313.86024 
L 276.280615 313.86024 
" clip-path="url(#pc08dca8dcf)" style="fill: none; stroke: #847d6b; stroke-width: 0.5; stroke-linecap: square"/>
   </g>
   <g id="line2d_32">
    <path d="M 237.871385 303.182474 
L 276.280615 303.182474 
" clip-path="url(#pc08dca8dcf)" style="fill: none; stroke: #847d6b; stroke-width: 0.5; stroke-linecap: square"/>
   </g>
   <g id="line2d_33">
    <path d="M 237.871385 292.504708 
L 276.280615 292.504708 
" clip-path="url(#pc08dca8dcf)" style="fill: none; stroke: #847d6b; stroke-width: 0.5; stroke-linecap: square"/>
   </g>
   <g id="line2d_34">
    <path d="M 237.871385 281.826942 
L 276.280615 281.826942 
" clip-path="url(#pc08dca8dcf)" style="fill: none; stroke: #847d6b; stroke-width: 0.5; stroke-linecap: square"/>
   </g>
   <g id="line2d_35">
    <path d="M 237.871385 271.149175 
L 276.280615 271.149175 
" clip-path="url(#pc08dca8dcf)" style="fill: none; stroke: #847d6b; stroke-width: 0.5; stroke-linecap: square"/>
   </g>
   <g id="line2d_36">
    <path d="M 237.871385 260.471409 
L 276.280615 260.471409 
" clip-path="url(#pc08dca8dcf)" style="fill: none; stroke: #847d6b; stroke-width: 0.5; stroke-linecap: square"/>
   </g>
   <g id="line2d_37">
    <path d="M 237.871385 249.793643 
L 276.280615 249.793643 
" clip-path="url(#pc08dca8dcf)" style="fill: none; stroke: #847d6b; stroke-width: 0.5; stroke-linecap: square"/>
   </g>
   <g id="line2d_38">
    <path d="M 191.780308 495.689538 
L 191.780308 211.461231 
" clip-path="url(#pc08dca8dcf)" style="fill: none; stroke: #b4a58c; stroke-width: 0.25; stroke-linecap: square"/>
   </g>
   <g id="line2d_39">
    <path d="M 197.925785 495.689538 
L 197.925785 211.461231 
" clip-path="url(#pc08dca8dcf)" style="fill: none; stroke: #b4a58c; stroke-width: 0.25; stroke-linecap: square"/>
   </g>
   <g id="line2d_40">
    <path d="M 204.071262 495.689538 
L 204.071262 211.461231 
" clip-path="url(#pc08dca8dcf)" style="fill: none; stroke: #b4a58c; stroke-width: 0.25; stroke-linecap: square"/>
   </g>
   <g id="line2d_41">
    <path d="M 210.216738 495.689538 
L 210.216738 211.461231 
" clip-path="url(#pc08dca8dcf)" style="fill: none; stroke: #b4a58c; stroke-width: 0.25; stroke-linecap: square"/>
   </g>
   <g id="line2d_42">
    <path d="M 216.362215 495.689538 
L 216.362215 211.461231 
" clip-path="url(#pc08dca8dcf)" style="fill: none; stroke: #b4a58c; stroke-width: 0.25; stroke-linecap: square"/>
   </g>
   <g id="line2d_43">
    <path d="M 222.507692 495.689538 
L 222.507692 211.461231 
" clip-path="url(#pc08dca8dcf)" style="fill: none; stroke: #b4a58c; stroke-width: 0.25; stroke-linecap: square"/>
   </g>
   <g id="line2d_44">
    <path d="M 228.653169 495.689538 
L 228.653169 211.461231 
" clip-path="url(#pc08dca8dcf)" style="fill: none; stroke: #b4a58c; stroke-width: 0.25; stroke-linecap: square"/>
   </g>
   <g id="line2d_45">
    <path d="M 234.798646 495.689538 
L 234.798646 211.461231 
" clip-path="url(#pc08dca8dcf)" style="fill: none; stroke: #b4a58c; stroke-width: 0.25; stroke-linecap: square"/>
   </g>
   <g id="line2d_46">
    <path d="M 240.944123 495.689538 
L 240.944123 211.461231 
" clip-path="url(#pc08dca8dcf)" style="fill: none; stroke: #b4a58c; stroke-width: 0.25; stroke-linecap: square"/>
   </g>
   <g id="line2d_47">
    <path d="M 247.0896 495.689538 
L 247.0896 211.461231 
" clip-path="url(#pc08dca8dcf)" style="fill: none; stroke: #b4a58c; stroke-width: 0.25; stroke-linecap: square"/>
   </g>
   <g id="line2d_48">
    <path d="M 253.235077 495.689538 
L 253.235077 211.461231 
" clip-path="url(#pc08dca8dcf)" style="fill: none; stroke: #b4a58c; stroke-width: 0.25; stroke-linecap: square"/>
   </g>
   <g id="line2d_49">
    <path d="M 259.380554 495.689538 
L 259.380554 211.461231 
" clip-path="url(#pc08dca8dcf)" style="fill: none; stroke: #b4a58c; stroke-width: 0.25; stroke-linecap: square"/>
   </g>
   <g id="line2d_50">
    <path d="M 265.526031 495.689538 
L 265.526031 211.461231 
" clip-path="url(#pc08dca8dcf)" style="fill: none; stroke: #b4a58c; stroke-width: 0.25; stroke-linecap: square"/>
   </g>
   <g id="line2d_51">
    <path d="M 271.671508 495.689538 
L 271.671508 211.461231 
" clip-path="url(#pc08dca8dcf)" style="fill: none; stroke: #b4a58c; stroke-width: 0.25; stroke-linecap: square"/>
   </g>
   <g id="line2d_52">
    <path d="M 277.816985 495.689538 
L 277.816985 211.461231 
" clip-path="url(#pc08dca8dcf)" style="fill: none; stroke: #b4a58c; stroke-width: 0.25; stroke-linecap: square"/>
   </g>
   <g id="line2d_53">
    <path d="M 283.962462 495.689538 
L 283.962462 211.461231 
" clip-path="url(#pc08dca8dcf)" style="fill: none; stroke: #b4a58c; stroke-width: 0.25; stroke-linecap: square"/>
   </g>
   <g id="line2d_54">
    <path d="M 290.107938 495.689538 
L 290.107938 211.461231 
" clip-path="url(#pc08dca8dcf)" style="fill: none; stroke: #b4a58c; stroke-width: 0.25; stroke-linecap: square"/>
   </g>
   <g id="line2d_55">
    <path d="M 296.253415 495.689538 
L 296.253415 211.461231 
" clip-path="url(#pc08dca8dcf)" style="fill: none; stroke: #b4a58c; stroke-width: 0.25; stroke-linecap: square"/>
   </g>
   <g id="line2d_56">
    <path d="M 302.398892 495.689538 
L 302.398892 211.461231 
" clip-path="url(#pc08dca8dcf)" style="fill: none; stroke: #b4a58c; stroke-width: 0.25; stroke-linecap: square"/>
   </g>
   <g id="line2d_57">
    <path d="M 308.544369 495.689538 
L 308.544369 211.461231 
" clip-path="url(#pc08dca8dcf)" style="fill: none; stroke: #b4a58c; stroke-width: 0.25; stroke-linecap: square"/>
   </g>
   <g id="line2d_58">
    <path d="M 314.689846 495.689538 
L 314.689846 211.461231 
" clip-path="url(#pc08dca8dcf)" style="fill: none; stroke: #b4a58c; stroke-width: 0.25; stroke-linecap: square"/>
   </g>
   <g id="line2d_59">
    <path d="M 320.835323 495.689538 
L 320.835323 211.461231 
" clip-path="url(#pc08dca8dcf)" style="fill: none; stroke: #b4a58c; stroke-width: 0.25; stroke-linecap: square"/>
   </g>
   <g id="line2d_60">
    <path d="M 326.9808 495.689538 
L 326.9808 211.461231 
" clip-path="url(#pc08dca8dcf)" style="fill: none; stroke: #b4a58c; stroke-width: 0.25; stroke-linecap: square"/>
   </g>
   <g id="line2d_61">
    <path d="M 333.126277 495.689538 
L 333.126277 211.461231 
" clip-path="url(#pc08dca8dcf)" style="fill: none; stroke: #b4a58c; stroke-width: 0.25; stroke-linecap: square"/>
   </g>
   <g id="line2d_62">
    <path d="M 339.271754 495.689538 
L 339.271754 211.461231 
" clip-path="url(#pc08dca8dcf)" style="fill: none; stroke: #b4a58c; stroke-width: 0.25; stroke-linecap: square"/>
   </g>
   <g id="line2d_63">
    <path d="M 345.417231 495.689538 
L 345.417231 211.461231 
" clip-path="url(#pc08dca8dcf)" style="fill: none; stroke: #b4a58c; stroke-width: 0.25; stroke-linecap: square"/>
   </g>
   <g id="line2d_64">
    <path d="M 351.562708 495.689538 
L 351.562708 211.461231 
" clip-path="url(#pc08dca8dcf)" style="fill: none; stroke: #b4a58c; stroke-width: 0.25; stroke-linecap: square"/>
   </g>
   <g id="line2d_65">
    <path d="M 357.708185 495.689538 
L 357.708185 211.461231 
" clip-path="url(#pc08dca8dcf)" style="fill: none; stroke: #b4a58c; stroke-width: 0.25; stroke-linecap: square"/>
   </g>
   <g id="line2d_66">
    <path d="M 363.853662 495.689538 
L 363.853662 211.461231 
" clip-path="url(#pc08dca8dcf)" style="fill: none; stroke: #b4a58c; stroke-width: 0.25; stroke-linecap: square"/>
   </g>
   <g id="line2d_67">
    <path d="M 369.999138 495.689538 
L 369.999138 211.461231 
" clip-path="url(#pc08dca8dcf)" style="fill: none; stroke: #b4a58c; stroke-width: 0.25; stroke-linecap: square"/>
   </g>
   <g id="line2d_68">
    <path d="M 376.144615 495.689538 
L 376.144615 211.461231 
" clip-path="url(#pc08dca8dcf)" style="fill: none; stroke: #b4a58c; stroke-width: 0.25; stroke-linecap: square"/>
   </g>
   <g id="line2d_69">
    <path d="M 382.290092 495.689538 
L 382.290092 211.461231 
" clip-path="url(#pc08dca8dcf)" style="fill: none; stroke: #b4a58c; stroke-width: 0.25; stroke-linecap: square"/>
   </g>
   <g id="line2d_70">
    <path d="M 388.435569 495.689538 
L 388.435569 211.461231 
" clip-path="url(#pc08dca8dcf)" style="fill: none; stroke: #b4a58c; stroke-width: 0.25; stroke-linecap: square"/>
   </g>
   <g id="line2d_71">
    <path d="M 394.581046 495.689538 
L 394.581046 211.461231 
" clip-path="url(#pc08dca8dcf)" style="fill: none; stroke: #b4a58c; stroke-width: 0.25; stroke-linecap: square"/>
   </g>
   <g id="line2d_72">
    <path d="M 400.726523 495.689538 
L 400.726523 211.461231 
" clip-path="url(#pc08dca8dcf)" style="fill: none; stroke: #b4a58c; stroke-width: 0.25; stroke-linecap: square"/>
   </g>
   <g id="line2d_73">
    <path d="M 406.872 495.689538 
L 406.872 211.461231 
" clip-path="url(#pc08dca8dcf)" style="fill: none; stroke: #b4a58c; stroke-width: 0.25; stroke-linecap: square"/>
   </g>
   <g id="line2d_74">
    <path d="M 413.017477 495.689538 
L 413.017477 211.461231 
" clip-path="url(#pc08dca8dcf)" style="fill: none; stroke: #b4a58c; stroke-width: 0.25; stroke-linecap: square"/>
   </g>
   <g id="line2d_75">
    <path d="M 419.162954 495.689538 
L 419.162954 211.461231 
" clip-path="url(#pc08dca8dcf)" style="fill: none; stroke: #b4a58c; stroke-width: 0.25; stroke-linecap: square"/>
   </g>
   <g id="line2d_76">
    <path d="M 425.308431 495.689538 
L 425.308431 211.461231 
" clip-path="url(#pc08dca8dcf)" style="fill: none; stroke: #b4a58c; stroke-width: 0.25; stroke-linecap: square"/>
   </g>
   <g id="line2d_77">
    <path d="M 431.453908 495.689538 
L 431.453908 211.461231 
" clip-path="url(#pc08dca8dcf)" style="fill: none; stroke: #b4a58c; stroke-width: 0.25; stroke-linecap: square"/>
   </g>
   <g id="line2d_78">
    <path d="M 614.281846 399.666462 
L 614.281846 211.461231 
" clip-path="url(#pc08dca8dcf)" style="fill: none; stroke: #b4a58c; stroke-width: 0.25; stroke-linecap: square"/>
   </g>
   <g id="line2d_79">
    <path d="M 620.427323 399.666462 
L 620.427323 211.461231 
" clip-path="url(#pc08dca8dcf)" style="fill: none; stroke: #b4a58c; stroke-width: 0.25; stroke-linecap: square"/>
   </g>
   <g id="line2d_80">
    <path d="M 626.5728 399.666462 
L 626.5728 211.461231 
" clip-path="url(#pc08dca8dcf)" style="fill: none; stroke: #b4a58c; stroke-width: 0.25; stroke-linecap: square"/>
   </g>
   <g id="line2d_81">
    <path d="M 632.718277 399.666462 
L 632.718277 211.461231 
" clip-path="url(#pc08dca8dcf)" style="fill: none; stroke: #b4a58c; stroke-width: 0.25; stroke-linecap: square"/>
   </g>
   <g id="line2d_82">
    <path d="M 638.863754 399.666462 
L 638.863754 211.461231 
" clip-path="url(#pc08dca8dcf)" style="fill: none; stroke: #b4a58c; stroke-width: 0.25; stroke-linecap: square"/>
   </g>
   <g id="line2d_83">
    <path d="M 645.009231 399.666462 
L 645.009231 211.461231 
" clip-path="url(#pc08dca8dcf)" style="fill: none; stroke: #b4a58c; stroke-width: 0.25; stroke-linecap: square"/>
   </g>
   <g id="line2d_84">
    <path d="M 651.154708 399.666462 
L 651.154708 211.461231 
" clip-path="url(#pc08dca8dcf)" style="fill: none; stroke: #b4a58c; stroke-width: 0.25; stroke-linecap: square"/>
   </g>
   <g id="line2d_85">
    <path d="M 657.300185 399.666462 
L 657.300185 211.461231 
" clip-path="url(#pc08dca8dcf)" style="fill: none; stroke: #b4a58c; stroke-width: 0.25; stroke-linecap: square"/>
   </g>
   <g id="line2d_86">
    <path d="M 663.445662 399.666462 
L 663.445662 211.461231 
" clip-path="url(#pc08dca8dcf)" style="fill: none; stroke: #b4a58c; stroke-width: 0.25; stroke-linecap: square"/>
   </g>
   <g id="line2d_87">
    <path d="M 669.591138 399.666462 
L 669.591138 211.461231 
" clip-path="url(#pc08dca8dcf)" style="fill: none; stroke: #b4a58c; stroke-width: 0.25; stroke-linecap: square"/>
   </g>
   <g id="line2d_88">
    <path d="M 675.736615 399.666462 
L 675.736615 211.461231 
" clip-path="url(#pc08dca8dcf)" style="fill: none; stroke: #b4a58c; stroke-width: 0.25; stroke-linecap: square"/>
   </g>
   <g id="line2d_89">
    <path d="M 681.882092 399.666462 
L 681.882092 211.461231 
" clip-path="url(#pc08dca8dcf)" style="fill: none; stroke: #b4a58c; stroke-width: 0.25; stroke-linecap: square"/>
   </g>
   <g id="line2d_90">
    <path d="M 688.027569 399.666462 
L 688.027569 211.461231 
" clip-path="url(#pc08dca8dcf)" style="fill: none; stroke: #b4a58c; stroke-width: 0.25; stroke-linecap: square"/>
   </g>
   <g id="line2d_91">
    <path d="M 694.173046 399.666462 
L 694.173046 211.461231 
" clip-path="url(#pc08dca8dcf)" style="fill: none; stroke: #b4a58c; stroke-width: 0.25; stroke-linecap: square"/>
   </g>
   <g id="line2d_92">
    <path d="M 700.318523 399.666462 
L 700.318523 211.461231 
" clip-path="url(#pc08dca8dcf)" style="fill: none; stroke: #b4a58c; stroke-width: 0.25; stroke-linecap: square"/>
   </g>
   <g id="line2d_93">
    <path d="M 706.464 399.666462 
L 706.464 211.461231 
" clip-path="url(#pc08dca8dcf)" style="fill: none; stroke: #b4a58c; stroke-width: 0.25; stroke-linecap: square"/>
   </g>
   <g id="line2d_94">
    <path d="M 712.609477 399.666462 
L 712.609477 211.461231 
" clip-path="url(#pc08dca8dcf)" style="fill: none; stroke: #b4a58c; stroke-width: 0.25; stroke-linecap: square"/>
   </g>
   <g id="line2d_95">
    <path d="M 718.754954 399.666462 
L 718.754954 211.461231 
" clip-path="url(#pc08dca8dcf)" style="fill: none; stroke: #b4a58c; stroke-width: 0.25; stroke-linecap: square"/>
   </g>
   <g id="line2d_96">
    <path d="M 724.900431 399.666462 
L 724.900431 211.461231 
" clip-path="url(#pc08dca8dcf)" style="fill: none; stroke: #b4a58c; stroke-width: 0.25; stroke-linecap: square"/>
   </g>
   <g id="line2d_97">
    <path d="M 731.045908 399.666462 
L 731.045908 211.461231 
" clip-path="url(#pc08dca8dcf)" style="fill: none; stroke: #b4a58c; stroke-width: 0.25; stroke-linecap: square"/>
   </g>
   <g id="line2d_98">
    <path d="M 737.191385 399.666462 
L 737.191385 211.461231 
" clip-path="url(#pc08dca8dcf)" style="fill: none; stroke: #b4a58c; stroke-width: 0.25; stroke-linecap: square"/>
   </g>
   <g id="line2d_99">
    <path d="M 743.336862 399.666462 
L 743.336862 211.461231 
" clip-path="url(#pc08dca8dcf)" style="fill: none; stroke: #b4a58c; stroke-width: 0.25; stroke-linecap: square"/>
   </g>
   <g id="line2d_100">
    <path d="M 749.482338 399.666462 
L 749.482338 211.461231 
" clip-path="url(#pc08dca8dcf)" style="fill: none; stroke: #b4a58c; stroke-width: 0.25; stroke-linecap: square"/>
   </g>
   <g id="line2d_101">
    <path d="M 755.627815 399.666462 
L 755.627815 211.461231 
" clip-path="url(#pc08dca8dcf)" style="fill: none; stroke: #b4a58c; stroke-width: 0.25; stroke-linecap: square"/>
   </g>
   <g id="line2d_102">
    <path d="M 761.773292 399.666462 
L 761.773292 211.461231 
" clip-path="url(#pc08dca8dcf)" style="fill: none; stroke: #b4a58c; stroke-width: 0.25; stroke-linecap: square"/>
   </g>
   <g id="line2d_103">
    <path d="M 767.918769 399.666462 
L 767.918769 211.461231 
" clip-path="url(#pc08dca8dcf)" style="fill: none; stroke: #b4a58c; stroke-width: 0.25; stroke-linecap: square"/>
   </g>
   <g id="line2d_104">
    <path d="M 774.064246 399.666462 
L 774.064246 211.461231 
" clip-path="url(#pc08dca8dcf)" style="fill: none; stroke: #b4a58c; stroke-width: 0.25; stroke-linecap: square"/>
   </g>
   <g id="patch_15">
    <path d="M 210.984923 259.555992 
Q 210.984923 297.882883 210.984923 335.09174 
" style="fill: none; stroke: #24382f; stroke-linecap: round"/>
    <path d="M 212.784923 331.49174 
L 210.984923 335.09174 
L 209.184923 331.49174 
" style="fill: none; stroke: #24382f; stroke-linecap: round"/>
   </g>
   <g id="patch_16">
    <path d="M 257.076 336.208008 
Q 257.076 297.881117 257.076 260.67226 
" style="fill: none; stroke: #24382f; stroke-linecap: round"/>
    <path d="M 255.276 264.27226 
L 257.076 260.67226 
L 258.876 264.27226 
" style="fill: none; stroke: #24382f; stroke-linecap: round"/>
   </g>
   <g id="text_1">
    <text style="font-size: 7px; font-family: 'DejaVu Sans'; text-anchor: middle; fill: #24382f" x="234.030462" y="367.029716" transform="rotate(-0 234.030462 367.029716)">20 x 0.17</text>
   </g>
   <g id="text_2">
    <text style="font-size: 8px; font-family: 'DejaVu Sans'; text-anchor: middle; fill: #24382f" x="314.689846" y="555.510885" transform="rotate(-0 314.689846 555.510885)">ceiling +3.05 / boards 0.16m / shadow gap 0.015m</text>
   </g>
   <g id="patch_17">
    <path d="M 833.214462 189.097051 
Q 833.214462 176.314292 833.214462 164.649566 
" style="fill: none; stroke: #24382f; stroke-linecap: round"/>
    <path d="M 831.414462 168.249566 
L 833.214462 164.649566 
L 835.014462 168.249566 
" style="fill: none; stroke: #24382f; stroke-linecap: round"/>
   </g>
   <g id="text_3">
    <text style="font-size: 9px; font-family: 'DejaVu Sans'; text-anchor: middle; fill: #24382f" x="833.214462" y="199.938462" transform="rotate(-0 833.214462 199.938462)">N</text>
   </g>
  </g>
  <g id="text_4">
   <text style="font-size: 10px; font-family: 'DejaVu Sans'; text-anchor: start; fill: #24382f" x="54.648" y="41.04" transform="rotate(-0 54.648 41.04)">L I E U V A   /   F O R E S T   F O L D</text>
  </g>
  <g id="text_5">
   <text style="font-size: 23px; font-family: 'DejaVu Sans'; text-anchor: start; fill: #24382f" x="54.648" y="71.82" transform="rotate(-0 54.648 71.82)">05 / Reflected ceiling L0</text>
  </g>
  <g id="text_6">
   <text style="font-size: 10px; font-family: 'DejaVu Sans'; text-anchor: start; fill: #667168" x="54.648" y="97.128" transform="rotate(-0 54.648 97.128)">Ceiling viewed in plan; same north orientation. Oak boards run north-south. Dots = recessed lights.</text>
  </g>
  <g id="text_7">
   <text style="font-size: 8px; font-family: 'DejaVu Sans'; text-anchor: start; fill: #657068" x="54.648" y="660.06" transform="rotate(-0 54.648 660.06)">DIGITAL MODEL CONCEPT  •  metres  •  16 SEP 2026  •  Dimensions / scene.json govern image variations</text>
  </g>
 </g>
 <defs>
  <clipPath id="pc08dca8dcf">
   <rect x="103.439077" y="123.12" width="806.593846" height="499.32"/>
  </clipPath>
 </defs>
</svg>
